<?xml version="1.0" encoding="utf-8"?>
<!-- Generator: Adobe Illustrator 24.0.0, SVG Export Plug-In . SVG Version: 6.00 Build 0)  -->
<svg version="1.1" id="Layer_1" xmlns="http://www.w3.org/2000/svg" xmlns:xlink="http://www.w3.org/1999/xlink" x="0px" y="0px"
	 viewBox="0 0 459.1 694" style="enable-background:new 0 0 459.1 694;" xml:space="preserve">
<style type="text/css">
	.st0{fill:#818181;}
	.st1{fill:#8D8D8D;}
	.st2{fill:#D1D3D4;}
	.st3{fill:#FFFFFF;}
</style>
<g>
	<path class="st0" d="M1.7,613.2H53v2.5H4.4v35.2h44v2.5h-44v36.8h49.5v2.5H1.7V613.2z"/>
	<path class="st0" d="M73.5,613.2h30.1c18.5,0,24.7,11.5,24.7,22.4c0,10.3-6.5,22.6-25,22.6H76.2v34.5h-2.7V613.2z M103.3,655.7
		c16.6,0,22.2-10.9,22.2-20.1c0-9.5-5.4-19.9-22-19.9H76.2v39.9H103.3z"/>
	<path class="st0" d="M144.4,684.1c5,3.6,14.6,7.4,25.5,7.4c16.3,0,23.8-7.8,23.8-18.2c0-28-49.7-10.3-49.7-41.4
		c0-11.3,9.3-20.1,25.3-20.1c10.7,0,18.6,2.6,23.9,5.3l-1.4,2.5c-5.1-2.6-12.7-5.3-22.6-5.3c-14.2,0-22.6,7.5-22.6,17.6
		c0,28.4,49.7,10,49.7,41.4c0,11.7-8.4,20.6-26.6,20.6c-11.6,0-21.7-3.7-27.1-7.6L144.4,684.1z"/>
	<path class="st0" d="M214.4,613.2h2.7v76.9h48.8v2.5h-51.5V613.2z"/>
	<path class="st0" d="M282.7,613.2h2.7v79.4h-2.7V613.2z"/>
	<path class="st0" d="M342,611.9c21,0,38.2,15.9,38.2,40.4c0,26.1-16.8,41.7-38.2,41.7c-21.4,0-38.2-15.7-38.2-41.7
		C303.8,627.8,321,611.9,342,611.9z M342,691.5c19.9,0,35.5-14.7,35.5-39.3c0-22.8-16.1-37.9-35.5-37.9c-19.4,0-35.5,15.1-35.5,37.9
		C306.5,676.8,322.2,691.5,342,691.5z"/>
	<path class="st0" d="M398.7,613.2h4l52.1,76.8v-76.8h2.7v79.4h-4.1l-52-76.7v76.7h-2.7V613.2z"/>
</g>
<g>
	<path class="st0" d="M18.5,550.9c4.2,0,8.5,1.2,11.4,3.5l-0.8,1.1c-2.8-2.1-6.8-3.4-10.7-3.4c-10.3,0-17.2,7.2-17.2,17.8
		c0,11.3,6.8,18.9,17.2,18.9c4.4,0,8.7-1.5,11.4-4l0.9,1c-3,2.8-7.6,4.3-12.3,4.3C7.3,590,0,582,0,569.9
		C0,558.5,7.5,550.9,18.5,550.9z"/>
	<path class="st0" d="M63.6,550.9c10,0,18.2,7.6,18.2,19.2c0,12.4-8,19.9-18.2,19.9c-10.2,0-18.2-7.5-18.2-19.9
		C45.4,558.5,53.6,550.9,63.6,550.9z M63.6,588.8c9.4,0,16.9-7,16.9-18.7c0-10.9-7.7-18-16.9-18s-16.9,7.2-16.9,18
		C46.7,581.8,54.1,588.8,63.6,588.8z"/>
	<path class="st0" d="M98.7,551.5h14.9c8.7,0,11.8,5.5,11.8,10.6c0,4.4-2.5,9.5-9.3,10.6l9,16.6h-1.6l-8.7-16.5
		c-0.4,0.1-0.8,0.1-1.2,0.1H100v16.4h-1.3V551.5z M113.4,571.7c7.8,0,10.6-5.2,10.6-9.6c0-4.5-2.6-9.4-10.5-9.4H100v19H113.4z"/>
	<path class="st0" d="M142.5,551.5h14.3c8.8,0,11.8,5.5,11.8,10.6c0,4.9-3.1,10.7-11.9,10.7h-12.9v16.4h-1.3V551.5z M156.7,571.7
		c7.9,0,10.6-5.2,10.6-9.6c0-4.5-2.6-9.4-10.5-9.4h-13v19H156.7z"/>
	<path class="st0" d="M202,550.9c10,0,18.2,7.6,18.2,19.2c0,12.4-8,19.9-18.2,19.9c-10.2,0-18.2-7.5-18.2-19.9
		C183.8,558.5,192,550.9,202,550.9z M202,588.8c9.4,0,16.9-7,16.9-18.7c0-10.9-7.7-18-16.9-18c-9.2,0-16.9,7.2-16.9,18
		C185.1,581.8,192.6,588.8,202,588.8z"/>
	<path class="st0" d="M237.1,551.5h14.9c8.7,0,11.8,5.5,11.8,10.6c0,4.4-2.5,9.5-9.3,10.6l9,16.6h-1.6l-8.7-16.5
		c-0.4,0.1-0.8,0.1-1.2,0.1h-13.4v16.4h-1.3V551.5z M251.8,571.7c7.8,0,10.6-5.2,10.6-9.6c0-4.5-2.6-9.4-10.5-9.4h-13.6v19H251.8z"
		/>
	<path class="st0" d="M292.3,551.5h1.8l14.8,37.8h-1.5l-4.3-11.2h-19.8l-4.3,11.2h-1.5L292.3,551.5z M283.8,576.9h19l-9.4-24.5h-0.1
		L283.8,576.9z"/>
	<path class="st0" d="M331.7,552.7H317v-1.2h30.8v1.2H333v36.6h-1.3V552.7z"/>
	<path class="st0" d="M362.9,551.5h1.3v37.8h-1.3V551.5z"/>
	<path class="st0" d="M379.6,551.5h1.5l13.7,36.6h0.1l13.7-36.6h1.5l-14.4,37.8H394L379.6,551.5z"/>
	<path class="st0" d="M440.9,550.9c10,0,18.2,7.6,18.2,19.2c0,12.4-8,19.9-18.2,19.9c-10.2,0-18.2-7.5-18.2-19.9
		C422.7,558.5,430.9,550.9,440.9,550.9z M440.9,588.8c9.4,0,16.9-7,16.9-18.7c0-10.9-7.7-18-16.9-18c-9.2,0-16.9,7.2-16.9,18
		C424,581.8,431.4,588.8,440.9,588.8z"/>
</g>
<g>
	<g>
		<polygon class="st1" points="206.2,193.9 211.1,196.8 206.2,199.7 		"/>
		<polygon class="st2" points="211.1,196.8 206.2,193.9 255.4,165.5 348.8,219.7 343.8,222.6 255.4,171.2 		"/>
		<path class="st3" d="M255.3,108.9l77,44.8c10.1,5.9,16.3,16.7,16.4,28.3l0.1,37.7l-93.3-54.2L255.3,108.9z"/>
		<polygon class="st1" points="206.3,244.8 211.3,247.7 206.3,250.5 		"/>
		<polygon class="st2" points="255.6,222.1 211.3,247.7 206.3,244.8 255.6,216.4 348.9,270.6 344,273.5 		"/>
		<polygon class="st3" points="255.6,216.4 255.4,171.2 343.8,222.6 348.8,225.5 348.9,270.6 		"/>
		<path class="st2" d="M255.8,278.7l93.3,54.2l-82,47.3c-10.2,5.9-22.8,5.9-33,0l-76.9-44.7L255.8,278.7z"/>
		<polygon class="st3" points="349.1,332.9 255.8,278.7 255.6,222.1 344,273.5 348.9,276.3 		"/>
		<path class="st0" d="M206.2,193.9l0,5.7l4.9-2.8l44.3-25.6l0.1,45.2l-49.3,28.4l0,5.7l4.9-2.8l44.3-25.6l0.2,56.6l-98.5,56.9
			l-0.4-150.7c0-11.8,6.2-22.7,16.5-28.6l82-47.3l0.2,56.6L206.2,193.9z"/>
	</g>
	<g>
		<path class="st2" d="M242.6,423.9c-87.1-5-158.1-75.1-164.1-162.1c-5.6-81.2,44.3-151.6,115.6-177.1C229.6,72,252.9,37.7,252.9,0
			v0C108.9,0-6.6,122.1,4.3,268.4c9.1,123.3,109.6,222.3,233,229.8c89.8,5.5,170.2-36.6,218.2-103.5l-1.6-0.9
			c-33.5-19.5-74.7-17.5-107.5,3.2C316.7,416,280.9,426.1,242.6,423.9z"/>
	</g>
</g>
</svg>
