<?xml version="1.0" encoding="utf-8"?>
<!-- Generator: Adobe Illustrator 24.0.0, SVG Export Plug-In . SVG Version: 6.00 Build 0)  -->
<svg version="1.1" id="Layer_1" xmlns="http://www.w3.org/2000/svg" xmlns:xlink="http://www.w3.org/1999/xlink" x="0px" y="0px"
	 viewBox="0 0 774 290.4" style="enable-background:new 0 0 774 290.4;" xml:space="preserve">
<style type="text/css">
	.st0{fill:#818181;}
	.st1{fill:#8D8D8D;}
	.st2{fill:#D1D3D4;}
	.st3{fill:#FFFFFF;}
</style>
<g>
	<path class="st0" d="M287.9,144h54.6v2.7h-51.7v37.4h46.8v2.7h-46.8v39.1h52.6v2.7h-55.5V144z"/>
	<path class="st0" d="M364.2,144h31.9c19.7,0,26.3,12.2,26.3,23.7c0,11-6.9,24-26.5,24h-28.8v36.6h-2.9V144z M395.9,189.1
		c17.6,0,23.6-11.6,23.6-21.3c0-10.1-5.8-21.1-23.4-21.1h-29v42.4H395.9z"/>
	<path class="st0" d="M439.6,219.4c5.3,3.9,15.5,7.8,27.1,7.8c17.4,0,25.3-8.3,25.3-19.3c0-29.8-52.8-11-52.8-44
		c0-12.1,9.9-21.3,26.9-21.3c11.3,0,19.8,2.8,25.4,5.7l-1.4,2.7c-5.4-2.8-13.5-5.7-24-5.7c-15.1,0-24,8-24,18.7
		c0,30.1,52.8,10.6,52.8,44c0,12.4-8.9,21.9-28.2,21.9c-12.3,0-23-4-28.8-8.1L439.6,219.4z"/>
	<path class="st0" d="M514,144h2.9v81.7h51.8v2.7H514V144z"/>
	<path class="st0" d="M586.6,144h2.9v84.4h-2.9V144z"/>
	<path class="st0" d="M649.6,142.6c22.3,0,40.6,16.9,40.6,42.9c0,27.7-17.8,44.4-40.6,44.4c-22.8,0-40.6-16.6-40.6-44.4
		C609,159.5,627.3,142.6,649.6,142.6z M649.6,227.2c21.1,0,37.7-15.7,37.7-41.7c0-24.2-17.1-40.3-37.7-40.3
		c-20.6,0-37.7,16-37.7,40.3C611.9,211.6,628.5,227.2,649.6,227.2z"/>
	<path class="st0" d="M709.8,144h4.2l55.3,81.6V144h2.9v84.4h-4.3l-55.2-81.5v81.5h-2.9V144z"/>
</g>
<g>
	<path class="st0" d="M305.8,77.8c4.5,0,9,1.3,12.2,3.7l-0.8,1.1c-3-2.2-7.2-3.6-11.4-3.6c-10.9,0-18.3,7.6-18.3,18.9
		c0,12.1,7.2,20.1,18.3,20.1c4.7,0,9.2-1.6,12.2-4.3l0.9,1c-3.2,2.9-8,4.5-13.1,4.5c-11.9,0-19.7-8.5-19.7-21.4
		C286.2,85.9,294.1,77.8,305.8,77.8z"/>
	<path class="st0" d="M353.7,77.8c10.6,0,19.3,8,19.3,20.4c0,13.2-8.5,21.1-19.3,21.1c-10.8,0-19.3-7.9-19.3-21.1
		C334.4,85.9,343.1,77.8,353.7,77.8z M353.7,118.1c10,0,18-7.5,18-19.9c0-11.5-8.1-19.2-18-19.2c-9.8,0-18,7.6-18,19.2
		C335.8,110.6,343.7,118.1,353.7,118.1z"/>
	<path class="st0" d="M391,78.5h15.8c9.2,0,12.5,5.8,12.5,11.3c0,4.7-2.7,10.1-9.9,11.2l9.5,17.6h-1.7l-9.3-17.5
		c-0.4,0.1-0.9,0.1-1.3,0.1h-14.3v17.4H391V78.5z M406.7,100c8.3,0,11.2-5.5,11.2-10.2c0-4.8-2.8-10-11.1-10h-14.4V100H406.7z"/>
	<path class="st0" d="M437.6,78.5h15.2c9.4,0,12.5,5.8,12.5,11.3c0,5.2-3.3,11.4-12.6,11.4H439v17.4h-1.4V78.5z M452.7,100
		c8.4,0,11.2-5.5,11.2-10.2c0-4.8-2.8-10-11.1-10H439V100H452.7z"/>
	<path class="st0" d="M500.8,77.8c10.6,0,19.3,8,19.3,20.4c0,13.2-8.5,21.1-19.3,21.1c-10.8,0-19.3-7.9-19.3-21.1
		C481.5,85.9,490.2,77.8,500.8,77.8z M500.8,118.1c10,0,18-7.5,18-19.9c0-11.5-8.1-19.2-18-19.2c-9.8,0-18,7.6-18,19.2
		C482.9,110.6,490.8,118.1,500.8,118.1z"/>
	<path class="st0" d="M538.1,78.5h15.8c9.2,0,12.5,5.8,12.5,11.3c0,4.7-2.7,10.1-9.9,11.2l9.5,17.6h-1.7l-9.3-17.5
		c-0.4,0.1-0.9,0.1-1.3,0.1h-14.3v17.4h-1.4V78.5z M553.8,100c8.3,0,11.2-5.5,11.2-10.2c0-4.8-2.8-10-11.1-10h-14.4V100H553.8z"/>
	<path class="st0" d="M596.8,78.5h2l15.7,40.2h-1.6l-4.6-11.9h-21.1l-4.6,11.9H581L596.8,78.5z M587.7,105.5h20.1l-10-26h-0.1
		L587.7,105.5z"/>
	<path class="st0" d="M638.7,79.8H623v-1.3h32.7v1.3H640v38.9h-1.4V79.8z"/>
	<path class="st0" d="M671.7,78.5h1.4v40.2h-1.4V78.5z"/>
	<path class="st0" d="M689.5,78.5h1.5l14.5,38.9h0.1l14.5-38.9h1.5l-15.3,40.2h-1.7L689.5,78.5z"/>
	<path class="st0" d="M754.6,77.8c10.6,0,19.3,8,19.3,20.4c0,13.2-8.5,21.1-19.3,21.1s-19.3-7.9-19.3-21.1
		C735.3,85.9,744,77.8,754.6,77.8z M754.6,118.1c10,0,18-7.5,18-19.9c0-11.5-8.1-19.2-18-19.2s-18,7.6-18,19.2
		C736.7,110.6,744.6,118.1,754.6,118.1z"/>
</g>
<g>
	<g>
		<polygon class="st1" points="118,112.9 120.9,114.6 118,116.3 		"/>
		<polygon class="st2" points="120.9,114.6 118,112.9 146.7,96.4 201,128 198.2,129.6 146.7,99.7 		"/>
		<path class="st3" d="M146.6,63.4l44.9,26.1c5.9,3.4,9.5,9.7,9.5,16.5l0.1,22l-54.4-31.6L146.6,63.4z"/>
		<polygon class="st1" points="118.1,142.6 121,144.2 118.1,145.9 		"/>
		<polygon class="st2" points="146.8,129.3 121,144.2 118.1,142.6 146.8,126 201.1,157.6 198.2,159.3 		"/>
		<polygon class="st3" points="146.8,126 146.7,99.7 198.2,129.6 201,131.3 201.1,157.6 		"/>
		<path class="st2" d="M146.9,162.3l54.4,31.6l-47.8,27.6c-5.9,3.4-13.3,3.4-19.2,0l-44.8-26L146.9,162.3z"/>
		<polygon class="st3" points="201.2,193.9 146.9,162.3 146.8,129.3 198.2,159.3 201.1,160.9 		"/>
		<path class="st0" d="M118,112.9l0,3.3l2.9-1.7l25.8-14.9l0.1,26.3l-28.7,16.6l0,3.3l2.9-1.7l25.8-14.9l0.1,33l-57.4,33.1
			l-0.2-87.8c0-6.9,3.6-13.2,9.6-16.7l47.7-27.6l0.1,33L118,112.9z"/>
	</g>
	<g>
		<path class="st2" d="M139.2,246.9c-50.7-2.9-92.1-43.8-95.6-94.4C40.4,105.1,69.5,64.1,111,49.3C131.7,41.9,145.2,22,145.2,0v0
			C61.4,0-5.9,71.1,0.4,156.3c5.3,71.8,63.8,129.5,135.7,133.9c52.3,3.2,99.1-21.3,127.1-60.3l-0.9-0.5
			c-19.5-11.3-43.5-10.2-62.6,1.9C182.4,242.2,161.5,248.1,139.2,246.9z"/>
	</g>
</g>
</svg>
